<?xml version="1.0" encoding="UTF-8"?>
<svg width="330px" height="158px" viewBox="0 0 330 158" version="1.1" xmlns="http://www.w3.org/2000/svg" xmlns:xlink="http://www.w3.org/1999/xlink">
    <title>404 - Desktop</title>
    <g id="404-Error" stroke="none" stroke-width="1" fill="none" fill-rule="evenodd">
        <g id="P2B---Desktop---404" transform="translate(-555.000000, -215.000000)" fill-rule="nonzero">
            <g id="Group-2" transform="translate(341.000000, 215.000000)">
                <g id="404---Desktop" transform="translate(214.000000, 0.000000)">
                    <path d="M59.3057143,134.295071 L59.3057143,108.948714 L0,108.948714 L0,84.7385 L52.5063,2.26977929 L86.5032143,2.26977929 L86.5032143,87.0076429 L103.501357,87.0076429 L103.501357,108.948714 L86.5032143,108.948714 L86.5032143,134.295071 L59.3057143,134.295071 Z M22.8534429,87.0076429 L59.3057143,87.0076429 L59.3057143,31.5876786 L57.6058214,31.5876786 L22.8534429,87.0076429 Z" id="Shape" fill="#FFFFFF"></path>
                    <path d="M165.188571,136.565 C147.561071,136.565 134.528429,130.574714 126.092214,118.595714 C117.781714,106.615929 113.626857,89.8448571 113.626857,68.2823429 C113.626857,46.7195143 117.781714,29.9483643 126.092214,17.96905 C134.528429,5.98968071 147.561071,0 165.188571,0 C182.816857,0 195.785857,5.98968071 204.096357,17.96905 C212.532571,29.9483643 216.751071,46.7195143 216.751071,68.2823429 C216.751071,89.8448571 212.532571,106.615929 204.096357,118.595714 C195.785857,130.574714 182.816857,136.565 165.188571,136.565 Z M165.188571,114.245214 C173.624786,114.245214 179.479929,111.282286 182.754,105.355643 C186.153786,99.429 187.853286,91.1695714 187.853286,80.5765714 L187.853286,55.9877214 C187.853286,45.3954286 186.153786,37.136 182.754,31.2093571 C179.479929,25.2827929 173.624786,22.3194714 165.188571,22.3194714 C156.752357,22.3194714 150.834357,25.2827929 147.434571,31.2093571 C144.161286,37.136 142.524643,45.3954286 142.524643,55.9877214 L142.524643,80.5765714 C142.524643,91.1695714 144.161286,99.429 147.434571,105.355643 C150.834357,111.282286 156.752357,114.245214 165.188571,114.245214 Z" id="Shape" fill="#FFFFFF"></path>
                    <path d="M285.804357,134.295071 L285.804357,108.948714 L226.498643,108.948714 L226.498643,84.7385 L279.004786,2.26977929 L313.001857,2.26977929 L313.001857,87.0076429 L330,87.0076429 L330,108.948714 L313.001857,108.948714 L313.001857,134.295071 L285.804357,134.295071 Z M249.351929,87.0076429 L285.804357,87.0076429 L285.804357,31.5876786 L284.104071,31.5876786 L249.351929,87.0076429 Z" id="Shape" fill="#FFFFFF"></path>
                    <polygon id="Path" fill="#565656" points="246.959429 153.756429 238.917643 153.756429 238.917643 149.273929 246.5045 149.273929 246.5045 146.417071 238.917643 146.417071 238.917643 142.131786 246.959429 142.131786 246.959429 139.065143 235.204357 139.065143 235.204357 156.834857 246.959429 156.834857"></polygon>
                    <path d="M253.353571,141.9715 L256.513714,141.9715 C258.357786,141.9715 259.513571,143.080143 259.513571,144.804 C259.513571,146.564786 258.419857,147.6365 256.550643,147.6365 L253.353571,147.6365 L253.353571,141.9715 Z M253.353571,150.333071 L256.329071,150.333071 L259.636929,156.834857 L263.842071,156.834857 L260.104429,149.779143 C262.144929,148.9785 263.325857,147.007929 263.325857,144.730143 C263.325857,141.220357 260.989143,139.065143 256.907357,139.065143 L249.640286,139.065143 L249.640286,156.834857 L253.353571,156.834857 L253.353571,150.333071 Z" id="Shape" fill="#565656"></path>
                    <path d="M269.485857,141.9715 L272.646,141.9715 C274.490857,141.9715 275.646643,143.080143 275.646643,144.804 C275.646643,146.564786 274.552143,147.6365 272.682929,147.6365 L269.485857,147.6365 L269.485857,141.9715 Z M269.485857,150.333071 L272.462143,150.333071 L275.77,156.834857 L279.975143,156.834857 L276.236714,149.779143 C278.278,148.9785 279.458143,147.007929 279.458143,144.730143 C279.458143,141.220357 277.122214,139.065143 273.039643,139.065143 L265.772571,139.065143 L265.772571,156.834857 L269.485857,156.834857 L269.485857,150.333071 Z" id="Shape" fill="#565656"></path>
                    <path d="M289.9105,138.757929 C284.647786,138.757929 281.3525,142.292071 281.3525,147.956286 C281.3525,153.608714 284.647786,157.142857 289.9105,157.142857 C295.160643,157.142857 298.4685,153.608714 298.4685,147.956286 C298.4685,142.292071 295.160643,138.757929 289.9105,138.757929 Z M289.9105,141.860714 C292.812143,141.860714 294.668786,144.224929 294.668786,147.956286 C294.668786,151.675071 292.812143,154.0275 289.9105,154.0275 C286.996286,154.0275 285.139643,151.675071 285.139643,147.956286 C285.139643,144.224929 287.008071,141.860714 289.9105,141.860714 Z" id="Shape" fill="#565656"></path>
                    <path d="M304.579786,141.9715 L307.739929,141.9715 C309.584786,141.9715 310.740571,143.080143 310.740571,144.804 C310.740571,146.564786 309.646071,147.6365 307.776857,147.6365 L304.579786,147.6365 L304.579786,141.9715 Z M304.579786,150.333071 L307.555286,150.333071 L310.863143,156.834857 L315.069071,156.834857 L311.330643,149.779143 C313.371929,148.9785 314.552071,147.007929 314.552071,144.730143 C314.552071,141.220357 312.216143,139.065143 308.133571,139.065143 L300.8665,139.065143 L300.8665,156.834857 L304.579786,156.834857 L304.579786,150.333071 Z" id="Shape" fill="#565656"></path>
                </g>
            </g>
        </g>
    </g>
</svg>