<svg xmlns="http://www.w3.org/2000/svg" viewBox="0 0 330 158"><defs/><g fill="none" fill-rule="nonzero"><path fill="#FFF" d="M59.306 134.295V108.95H0v-24.21l52.506-82.47h33.997v84.739h16.998v21.94H86.503v25.347H59.306zM22.853 87.008h36.453v-55.42h-1.7l-34.753 55.42zM165.189 136.565c-17.628 0-30.66-5.99-39.097-17.97-8.31-11.98-12.465-28.75-12.465-50.313 0-21.562 4.155-38.334 12.465-50.313C134.528 5.989 147.562 0 165.19 0c17.628 0 30.597 5.99 38.907 17.97 8.437 11.978 12.655 28.75 12.655 50.312 0 21.563-4.218 38.334-12.655 50.314-8.31 11.979-21.28 17.969-38.907 17.969zm0-22.32c8.436 0 14.29-2.963 17.565-8.89 3.4-5.926 5.1-14.185 5.1-24.778v-24.59c0-10.592-1.7-18.851-5.1-24.778-3.274-5.926-9.13-8.89-17.565-8.89-8.437 0-14.355 2.964-17.754 8.89-3.274 5.927-4.91 14.186-4.91 24.779v24.589c0 10.593 1.636 18.852 4.91 24.779 3.4 5.926 9.317 8.89 17.754 8.89zM285.804 134.295V108.95H226.5v-24.21l52.506-82.47h33.997v84.739H330v21.94h-16.998v25.347h-27.198zm-36.452-47.287h36.452v-55.42h-1.7l-34.752 55.42z"/><path fill="#565656" d="M246.96 153.756h-8.042v-4.482h7.587v-2.857h-7.587v-4.285h8.041v-3.067h-11.755v17.77h11.755zM253.354 141.971h3.16c1.844 0 3 1.11 3 2.833 0 1.76-1.094 2.833-2.963 2.833h-3.197v-5.666zm0 8.362h2.975l3.308 6.502h4.205l-3.738-7.056c2.04-.8 3.222-2.771 3.222-5.049 0-3.51-2.337-5.665-6.419-5.665h-7.267v17.77h3.714v-6.502zM269.486 141.971h3.16c1.845 0 3 1.11 3 2.833 0 1.76-1.094 2.833-2.963 2.833h-3.197v-5.666zm0 8.362h2.976l3.308 6.502h4.205l-3.738-7.056c2.041-.8 3.221-2.771 3.221-5.049 0-3.51-2.336-5.665-6.418-5.665h-7.267v17.77h3.713v-6.502zM289.91 138.758c-5.262 0-8.558 3.534-8.558 9.198 0 5.653 3.296 9.187 8.559 9.187 5.25 0 8.558-3.534 8.558-9.187 0-5.664-3.308-9.198-8.558-9.198zm0 3.103c2.902 0 4.759 2.364 4.759 6.095 0 3.72-1.857 6.072-4.758 6.072-2.915 0-4.771-2.353-4.771-6.072 0-3.731 1.868-6.095 4.77-6.095zM304.58 141.971h3.16c1.845 0 3 1.11 3 2.833 0 1.76-1.094 2.833-2.963 2.833h-3.197v-5.666zm0 8.362h2.975l3.308 6.502h4.206l-3.738-7.056c2.04-.8 3.221-2.771 3.221-5.049 0-3.51-2.336-5.665-6.418-5.665h-7.268v17.77h3.714v-6.502z"/></g></svg>