<svg width="152" height="48" viewBox="0 0 152 48" fill="none" xmlns="http://www.w3.org/2000/svg">
<path fill-rule="evenodd" clip-rule="evenodd" d="M55.3435 1.36202V20.0107H60.7507V9.27147C60.7507 8.3978 60.8749 7.66329 61.1154 7.06796C61.3559 6.47262 61.6894 6.03192 62.1161 5.73812C62.5428 5.44432 63.0548 5.29742 63.6677 5.29742C64.4435 5.29742 65.0331 5.5371 65.4365 6.00873C65.8399 6.48035 66.0416 7.18393 66.0416 8.104V20.0184H71.4489V9.34879C71.4489 8.45192 71.5653 7.70195 71.798 7.09115C72.0308 6.48809 72.3566 6.03965 72.7678 5.74585C73.1789 5.45205 73.6832 5.30515 74.2651 5.30515C75.1184 5.30515 75.7391 5.52936 76.127 5.99326C76.5148 6.45716 76.7088 7.16074 76.7088 8.104V20.0107H82.1161V7.07569C82.1161 5.01135 81.6118 3.44182 80.6033 2.37486C79.5947 1.3079 78.1673 0.774414 76.3131 0.774414C75.0951 0.774414 74.0323 1.06048 73.1169 1.63262C72.2014 2.19703 71.4644 2.99339 70.9059 4.01397C70.4947 2.947 69.8198 2.14291 68.8966 1.59397C67.9734 1.04502 66.8562 0.774414 65.5374 0.774414C64.4901 0.774414 63.5669 1.02183 62.76 1.52438C61.9532 2.02694 61.286 2.72278 60.7507 3.61965V1.36202H55.3435ZM88.3224 19.3381C89.7964 20.1731 91.5187 20.5906 93.4892 20.5906C95.6537 20.5906 97.5311 20.0494 99.1137 18.967C100.696 17.8845 101.72 16.2764 102.186 14.1424H97.1432C96.9027 14.8228 96.4683 15.3563 95.8476 15.7429C95.227 16.1295 94.4667 16.3227 93.5668 16.3227C92.2324 16.3227 91.1541 15.9748 90.355 15.2867C89.5559 14.5986 89.0672 13.5162 88.8965 12.0317H102.302C102.325 11.7147 102.341 11.3358 102.341 10.9029C102.341 8.83853 102 7.0448 101.317 5.5294C100.634 4.014 99.6257 2.84652 98.2836 2.01924C96.9415 1.19196 95.3899 0.78218 93.3884 0.78218C91.3868 0.78218 89.6568 1.22288 88.1983 2.09656C86.732 2.97796 85.6227 4.1609 84.8701 5.66857C84.1176 7.1685 83.7375 8.86946 83.7375 10.7637C83.7375 12.658 84.1331 14.3512 84.9245 15.8434C85.7158 17.3356 86.8484 18.5031 88.3224 19.3381ZM95.9717 5.9701C96.6312 6.54224 97.0191 7.40818 97.1432 8.57566H89.0362C89.3232 7.40818 89.8507 6.54224 90.6033 5.9701C91.3558 5.39796 92.31 5.11189 93.3806 5.11189C94.4512 5.11189 95.3123 5.39796 95.9717 5.9701ZM61.3403 46.6848L55.6072 28.0439H60.9059L64.1565 39.881L67.5932 28.0439H71.9765L75.4132 39.9892L78.7026 28.0439H83.9625L78.1906 46.6848H73.0005L69.7887 35.6905L66.5769 46.6848H61.3558H61.3403ZM86.3131 46.4297C87.1742 46.8394 88.175 47.0482 89.3232 47.0482L89.3154 47.0405C90.58 47.0405 91.7359 46.7312 92.7832 46.0972C93.8305 45.4709 94.6529 44.5741 95.2347 43.4066V46.6848H100.495V34.3761C100.495 33.0153 100.169 31.8169 99.5093 30.7731C98.8499 29.7294 97.9112 28.9098 96.6777 28.3299C95.452 27.7501 93.9857 27.4563 92.279 27.4563C90.7972 27.4563 89.4318 27.7269 88.206 28.2758C86.9803 28.817 85.995 29.5979 85.2503 30.603C84.5055 31.6081 84.0633 32.8065 83.9159 34.1905H89.2534C89.3542 33.4869 89.6568 32.9225 90.1688 32.5127C90.6808 32.103 91.4178 31.8942 92.3643 31.8942C93.2409 31.8942 93.9391 32.0952 94.4667 32.4973C94.9865 32.8993 95.2502 33.4096 95.2502 34.0127C95.2502 34.3529 95.1494 34.6235 94.9399 34.8322C94.7305 35.041 94.3581 35.1956 93.8228 35.2884L90.1688 35.9069C88.0276 36.2703 86.3907 36.9352 85.258 37.894C84.1254 38.8527 83.559 40.1516 83.559 41.7752C83.559 42.8654 83.8073 43.8164 84.2883 44.6127C84.7693 45.4091 85.4442 46.0199 86.3131 46.4297ZM93.3418 42.301C92.7289 42.7262 92.0152 42.935 91.1851 42.935L91.1928 42.9272C90.4636 42.9272 89.8973 42.7571 89.4939 42.4015C89.0904 42.0536 88.8887 41.5819 88.8887 41.0021C88.8887 40.2521 89.1603 39.7186 89.7111 39.4016C90.2541 39.0924 90.9291 38.8604 91.7359 38.7135L93.7064 38.3501C94.0012 38.3037 94.2883 38.2341 94.5831 38.1491C94.8779 38.064 95.0951 37.979 95.2425 37.9094V38.3115C95.2425 39.1387 95.0718 39.9042 94.746 40.6077C94.4201 41.3113 93.9469 41.8757 93.3418 42.301ZM109.967 47.226C107.803 47.226 106.243 46.7312 105.312 45.7493C104.381 44.7674 103.908 43.337 103.908 41.4737V32.3349H101.131V28.0361H103.908V23.0802H109.315V28.0361H113.008V32.3349H109.315V41.1799C109.315 41.6902 109.494 42.069 109.843 42.3242C110.2 42.5793 110.689 42.703 111.325 42.703C111.689 42.703 112.24 42.6566 112.969 42.5561V46.7467C111.969 47.0637 110.976 47.2183 109.975 47.2183L109.967 47.226ZM118.167 45.9503C119.663 46.8002 121.377 47.2255 123.299 47.226C124.981 47.2255 126.454 46.9008 127.717 46.2596C128.982 45.6179 129.983 44.7442 130.712 43.6386C131.449 42.5329 131.883 41.2881 132.031 39.9042H126.662C126.437 40.6851 126.049 41.3268 125.491 41.8371C124.932 42.3474 124.187 42.6025 123.264 42.6025C122.388 42.6025 121.627 42.3628 120.983 41.8912C120.339 41.4196 119.843 40.7933 119.502 39.997C119.16 39.2006 118.99 38.296 118.99 37.3527C118.99 36.4095 119.16 35.5281 119.502 34.7163C119.843 33.9044 120.339 33.255 120.983 32.7524C121.627 32.2499 122.388 32.0025 123.264 32.0025C124.187 32.0025 124.932 32.2576 125.475 32.7679C126.018 33.2782 126.406 33.9431 126.623 34.7704H131.992C131.844 33.3091 131.379 32.0334 130.603 30.9278C129.827 29.8221 128.811 28.9717 127.554 28.3609C126.305 27.7501 124.87 27.4485 123.264 27.4485C121.317 27.4485 119.595 27.8892 118.113 28.7629C116.623 29.6366 115.483 30.835 114.676 32.3504C113.877 33.8658 113.474 35.559 113.474 37.4301C113.474 39.3011 113.885 40.9711 114.699 42.4556C115.514 43.9324 116.67 45.0998 118.167 45.9503ZM133.458 46.6848V20.2813H138.796V30.4406C139.377 29.4974 140.13 28.7629 141.045 28.2371C141.961 27.7191 143.016 27.4562 144.203 27.4562C146.321 27.4562 147.981 28.1521 149.176 29.5283C150.37 30.9123 150.968 32.8143 150.968 35.242V46.6771H145.56V35.5358C145.56 34.3683 145.289 33.4869 144.754 32.8761C144.218 32.273 143.427 31.9638 142.38 31.9638C141.674 31.9638 141.053 32.1571 140.518 32.5437C139.982 32.9302 139.564 33.4714 139.261 34.1673C138.958 34.8554 138.803 35.6518 138.803 36.5486V46.6693H133.466L133.458 46.6848ZM0.77417 23.977C0.77417 11.1657 11.1931 0.782164 24.048 0.782164C36.9029 0.782164 47.3218 11.1657 47.3218 23.977C47.3218 36.7883 36.9029 47.1719 24.048 47.1719C11.1931 47.1719 0.77417 36.7883 0.77417 23.977ZM32.1783 22.2993L28.439 15.4568L24.7539 22.2993H32.1783ZM14.3505 22.2993L10.6423 15.5109L6.94948 22.2993H14.3505ZM2.57401 30.3402H10.425L14.7772 23.0879H6.51504L2.57401 30.3402ZM11.1077 14.6372L11.0845 14.6836L15.2427 22.2993H23.4816L19.3544 14.6372H11.1077ZM19.8975 30.3402H24.11L24.1023 30.3324H27.9114L24.1023 23.4513V23.4668L23.9006 23.0879H15.6694L15.7392 23.2116L19.8975 30.3402ZM24.816 23.0879L28.5786 29.8995L32.5507 23.0879H24.816ZM37.1123 14.6372H28.8812L33.0627 22.2993H41.2783L37.1123 14.6372ZM34.0712 24.1239L37.795 30.3324H37.8028H45.6616L41.7205 23.0802H33.5049L34.0712 24.1239Z" fill="#F900E4"/>
</svg>
