<svg width="1920" height="1080" viewBox="0 0 1920 1080" fill="none" xmlns="http://www.w3.org/2000/svg">
<rect width="1920" height="1080" fill="#333333"/>
<path fill-rule="evenodd" clip-rule="evenodd" d="M836.72 403.228V515.897H869.326V451.014C869.326 445.736 870.074 441.298 871.524 437.701C872.974 434.104 874.986 431.442 877.559 429.667C880.132 427.892 883.219 427.004 886.915 427.004C891.593 427.004 895.148 428.452 897.581 431.302C900.013 434.151 901.23 438.402 901.23 443.961V515.944H933.835V451.481C933.835 446.063 934.537 441.532 935.94 437.841C937.344 434.198 939.309 431.489 941.788 429.713C944.267 427.938 947.308 427.051 950.817 427.051C955.962 427.051 959.705 428.406 962.044 431.208C964.383 434.011 965.552 438.262 965.552 443.961V515.897H998.158V437.748C998.158 425.276 995.117 415.793 989.036 409.347C982.954 402.901 974.347 399.678 963.166 399.678C955.822 399.678 949.413 401.406 943.893 404.863C938.373 408.273 933.929 413.084 930.561 419.25C928.081 412.804 924.011 407.946 918.445 404.629C912.878 401.313 906.142 399.678 898.189 399.678C891.874 399.678 886.307 401.173 881.442 404.209C876.576 407.245 872.553 411.449 869.326 416.868V403.228H836.72ZM1035.58 511.833C1044.47 516.878 1054.86 519.401 1066.74 519.401C1079.79 519.401 1091.11 516.131 1100.65 509.591C1110.2 503.051 1116.37 493.335 1119.18 480.443H1088.77C1087.32 484.553 1084.7 487.777 1080.96 490.112C1077.22 492.448 1072.63 493.616 1067.21 493.616C1059.16 493.616 1052.66 491.514 1047.84 487.356C1043.02 483.199 1040.07 476.659 1039.04 467.69H1119.88C1120.02 465.775 1120.11 463.486 1120.11 460.871C1120.11 448.398 1118.06 437.561 1113.94 428.406C1109.82 419.25 1103.74 412.197 1095.65 407.199C1087.55 402.2 1078.2 399.725 1066.13 399.725C1054.06 399.725 1043.63 402.387 1034.83 407.666C1025.99 412.991 1019.3 420.138 1014.76 429.247C1010.23 438.309 1007.94 448.585 1007.94 460.03C1007.94 471.474 1010.32 481.704 1015.09 490.719C1019.86 499.735 1026.69 506.788 1035.58 511.833ZM1081.71 431.068C1085.68 434.525 1088.02 439.757 1088.77 446.81H1039.89C1041.62 439.757 1044.8 434.525 1049.34 431.068C1053.87 427.612 1059.63 425.883 1066.08 425.883C1072.54 425.883 1077.73 427.612 1081.71 431.068ZM872.881 677.053L838.31 564.431H870.261L889.862 635.947L910.586 564.431H937.016L957.74 636.601L977.575 564.431H1009.29L974.487 677.053H943.191L923.824 610.629L904.457 677.053H872.974H872.881ZM1023.47 675.512C1028.66 677.987 1034.69 679.248 1041.62 679.248L1041.57 679.202C1049.19 679.202 1056.17 677.333 1062.48 673.503C1068.8 669.719 1073.75 664.301 1077.26 657.247V677.053H1108.98V602.688C1108.98 594.466 1107.02 587.226 1103.04 580.92C1099.06 574.614 1093.4 569.662 1085.96 566.159C1078.57 562.656 1069.73 560.881 1059.44 560.881C1050.5 560.881 1042.27 562.515 1034.88 565.832C1027.49 569.102 1021.55 573.82 1017.06 579.892C1012.57 585.965 1009.9 593.205 1009.01 601.567H1041.2C1041.8 597.316 1043.63 593.906 1046.72 591.43C1049.8 588.954 1054.25 587.693 1059.95 587.693C1065.24 587.693 1069.45 588.908 1072.63 591.337C1075.77 593.766 1077.36 596.849 1077.36 600.492C1077.36 602.548 1076.75 604.182 1075.49 605.444C1074.22 606.705 1071.98 607.639 1068.75 608.2L1046.72 611.937C1033.8 614.132 1023.93 618.149 1017.1 623.942C1010.27 629.734 1006.86 637.581 1006.86 647.391C1006.86 653.977 1008.36 659.723 1011.26 664.534C1014.16 669.346 1018.23 673.036 1023.47 675.512ZM1065.85 650.567C1062.15 653.137 1057.85 654.398 1052.84 654.398L1052.89 654.351C1048.49 654.351 1045.08 653.323 1042.65 651.175C1040.21 649.073 1039 646.223 1039 642.72C1039 638.189 1040.63 634.966 1043.96 633.05C1047.23 631.182 1051.3 629.781 1056.17 628.893L1068.05 626.698C1069.83 626.417 1071.56 625.997 1073.33 625.483C1075.11 624.969 1076.42 624.455 1077.31 624.035V626.464C1077.31 631.462 1076.28 636.087 1074.32 640.337C1072.35 644.588 1069.5 647.998 1065.85 650.567ZM1166.1 680.323C1153.05 680.323 1143.64 677.333 1138.03 671.401C1132.42 665.468 1129.56 656.827 1129.56 645.569V590.356H1112.82V564.384H1129.56V534.442H1162.17V564.384H1184.44V590.356H1162.17V643.794C1162.17 646.877 1163.24 649.166 1165.35 650.708C1167.5 652.249 1170.45 652.996 1174.29 652.996C1176.48 652.996 1179.81 652.716 1184.2 652.109V677.427C1178.17 679.342 1172.18 680.276 1166.15 680.276L1166.1 680.323ZM1215.55 672.615C1224.57 677.754 1234.91 680.323 1246.51 680.323H1246.47C1256.62 680.323 1265.51 678.361 1273.13 674.484C1280.76 670.607 1286.79 665.328 1291.19 658.649C1295.63 651.969 1298.25 644.448 1299.14 636.087H1266.77C1265.41 640.805 1263.07 644.682 1259.71 647.765C1256.34 650.848 1251.85 652.389 1246.28 652.389C1240.99 652.389 1236.41 650.941 1232.53 648.092C1228.64 645.242 1225.65 641.459 1223.59 636.647C1221.53 631.836 1220.5 626.371 1220.5 620.672C1220.5 614.973 1221.53 609.648 1223.59 604.743C1225.65 599.838 1228.64 595.914 1232.53 592.878C1236.41 589.842 1240.99 588.347 1246.28 588.347C1251.85 588.347 1256.34 589.889 1259.61 592.972C1262.89 596.055 1265.23 600.072 1266.54 605.07H1298.91C1298.02 596.241 1295.21 588.534 1290.53 581.854C1285.86 575.174 1279.73 570.036 1272.15 566.346C1264.62 562.656 1255.96 560.834 1246.28 560.834C1234.54 560.834 1224.15 563.496 1215.22 568.775C1206.24 574.053 1199.36 581.294 1194.49 590.449C1189.68 599.605 1187.24 609.835 1187.24 621.139C1187.24 632.443 1189.72 642.533 1194.63 651.502C1199.55 660.424 1206.52 667.477 1215.55 672.615ZM1307.75 677.053V517.532H1339.93V578.911C1343.44 573.212 1347.98 568.775 1353.5 565.598C1359.02 562.469 1365.38 560.88 1372.54 560.88C1385.31 560.88 1395.32 565.085 1402.53 573.399C1409.73 581.761 1413.33 593.252 1413.33 607.919V677.006H1380.73V609.694C1380.73 602.641 1379.09 597.316 1375.86 593.625C1372.63 589.982 1367.86 588.113 1361.55 588.113C1357.29 588.113 1353.55 589.281 1350.32 591.617C1347.09 593.952 1344.56 597.222 1342.74 601.426C1340.92 605.584 1339.98 610.395 1339.98 615.814V676.96H1307.8L1307.75 677.053ZM507.668 539.86C507.668 462.459 570.494 399.725 648.009 399.725C725.523 399.725 788.349 462.459 788.349 539.86C788.349 617.262 725.523 679.996 648.009 679.996C570.494 679.996 507.668 617.262 507.668 539.86ZM697.034 529.724L674.486 488.384L652.266 529.724H697.034ZM589.534 529.724L567.173 488.711L544.905 529.724H589.534ZM518.521 578.304H565.863L592.107 534.488H542.286L518.521 578.304ZM569.98 483.432L569.839 483.713L594.913 529.724H644.594L619.707 483.432H569.98ZM622.981 578.304H648.383L648.336 578.257H671.305L648.336 536.684V536.777L647.12 534.488H597.486L597.907 535.236L622.981 578.304ZM652.64 534.488L675.328 575.642L699.28 534.488H652.64ZM726.786 483.432H677.153L702.367 529.724H751.907L726.786 483.432ZM708.449 540.748L730.903 578.257H730.95H778.338L754.574 534.442H705.034L708.449 540.748Z" fill="#5B5B5B"/>
</svg>