<svg width="60" height="60" viewBox="0 0 60 60" fill="none" xmlns="http://www.w3.org/2000/svg">
<g filter="url(#filter0_d_2450_1675)">
<circle cx="30" cy="29" r="28" fill="#12AD2A"/>
<path d="M40.731 27.3016V40.3095C39.0088 40.8957 35.7477 41.7019 32.4865 41.7019C27.9796 41.7019 24.7184 40.566 22.4466 38.3674C20.1748 36.2422 18.929 33.0177 18.9656 29.3902C19.0023 21.1824 24.9749 16.4922 33.0728 16.4922C36.2606 16.4922 38.7157 17.1151 39.9248 17.7014L38.7523 22.1717C37.3965 21.5854 35.711 21.1091 32.9995 21.1091C28.346 21.1091 24.8283 23.7473 24.8283 29.097C24.8283 34.1903 28.0162 37.1949 32.5964 37.1949C33.8789 37.1949 34.9049 37.0483 35.3446 36.8285V31.662H31.5338V27.3016H40.731Z" fill="white"/>
</g>
<defs>
<filter id="filter0_d_2450_1675" x="0" y="0" width="60" height="60" filterUnits="userSpaceOnUse" color-interpolation-filters="sRGB">
<feFlood flood-opacity="0" result="BackgroundImageFix"/>
<feColorMatrix in="SourceAlpha" type="matrix" values="0 0 0 0 0 0 0 0 0 0 0 0 0 0 0 0 0 0 127 0" result="hardAlpha"/>
<feOffset dy="1"/>
<feGaussianBlur stdDeviation="1"/>
<feColorMatrix type="matrix" values="0 0 0 0 0 0 0 0 0 0 0 0 0 0 0 0 0 0 0.5 0"/>
<feBlend mode="normal" in2="BackgroundImageFix" result="effect1_dropShadow_2450_1675"/>
<feBlend mode="normal" in="SourceGraphic" in2="effect1_dropShadow_2450_1675" result="shape"/>
</filter>
</defs>
</svg>
