<svg width="94" height="43" viewBox="0 0 94 43" fill="none" xmlns="http://www.w3.org/2000/svg">
<g filter="url(#filter0_d_2450_1679)">
<path d="M2 7.42857C2 3.87817 4.89194 1 8.45933 1H85.5407C89.1081 1 92 3.87817 92 7.42857V33.5714C92 37.1218 89.1081 40 85.5407 40H8.45933C4.89194 40 2 37.1218 2 33.5714V7.42857Z" fill="#FF5A00"/>
<path d="M67.3895 31.7932C61.9184 31.7932 59.3984 28.7242 59.3984 25.8202C59.3984 23.2462 60.8905 21.4642 63.2448 20.4412V20.3422C61.1558 19.2862 60.1279 17.5372 60.1279 15.6562C60.1279 12.0262 63.4105 9.61719 67.7211 9.61719C72.7611 9.61719 74.85 12.5212 74.85 15.1282C74.85 16.9762 73.8553 18.7912 71.7332 19.8472V19.9462C73.8221 20.7382 75.679 22.5202 75.679 25.2922C75.679 29.1862 72.3963 31.7932 67.3895 31.7932ZM67.5884 28.3282C69.379 28.3282 70.5395 27.1732 70.5395 25.6552C70.5395 23.7742 69.1469 22.6522 67.1574 22.1242C65.4995 22.5862 64.5379 23.7742 64.5379 25.3252C64.5048 26.8762 65.6984 28.3282 67.5884 28.3282ZM67.489 13.0162C65.7648 13.0162 64.8695 14.1382 64.8695 15.4912C64.8695 16.9432 66.1958 17.8672 67.92 18.3952C69.0805 18.0652 70.1084 17.0092 70.1084 15.6562C70.1084 14.3362 69.3458 13.0162 67.489 13.0162Z" fill="white"/>
<path d="M50.7842 31.4305V14.4355H50.7179L46.6063 16.3825L45.7773 12.6205L51.4805 9.98047H55.6584V31.4305H50.7842Z" fill="white"/>
<path d="M38.061 31.4295L37.7294 22.9155C37.6299 20.2425 37.5305 17.0085 37.5305 13.7745H37.431C36.7347 16.6125 35.8062 19.7805 34.9441 22.3875L32.2252 31.0665H28.2794L25.892 22.4535C25.1626 19.8465 24.3999 16.6785 23.8694 13.7745H23.8031C23.6705 16.7775 23.571 20.2095 23.4052 22.9815L23.0073 31.4295H18.332L19.7578 9.1875H26.4889L28.6773 16.6125C29.3736 19.1865 30.0699 21.9585 30.5673 24.5655H30.6668C31.2968 21.9915 32.0594 19.0545 32.7889 16.5795L35.1762 9.1875H41.7747L43.0015 31.4295H38.061Z" fill="white"/>
</g>
<defs>
<filter id="filter0_d_2450_1679" x="0" y="0" width="94" height="43" filterUnits="userSpaceOnUse" color-interpolation-filters="sRGB">
<feFlood flood-opacity="0" result="BackgroundImageFix"/>
<feColorMatrix in="SourceAlpha" type="matrix" values="0 0 0 0 0 0 0 0 0 0 0 0 0 0 0 0 0 0 127 0" result="hardAlpha"/>
<feOffset dy="1"/>
<feGaussianBlur stdDeviation="1"/>
<feColorMatrix type="matrix" values="0 0 0 0 0 0 0 0 0 0 0 0 0 0 0 0 0 0 0.5 0"/>
<feBlend mode="normal" in2="BackgroundImageFix" result="effect1_dropShadow_2450_1679"/>
<feBlend mode="normal" in="SourceGraphic" in2="effect1_dropShadow_2450_1679" result="shape"/>
</filter>
</defs>
</svg>
