<svg width="94" height="43" viewBox="0 0 94 43" fill="none" xmlns="http://www.w3.org/2000/svg">
<g filter="url(#filter0_d_2450_1678)">
<path d="M2 7.42857C2 3.87817 4.89194 1 8.45933 1H85.5407C89.1081 1 92 3.87817 92 7.42857V33.5714C92 37.1218 89.1081 40 85.5407 40H8.45933C4.89194 40 2 37.1218 2 33.5714V7.42857Z" fill="#FF5A00"/>
<path d="M80.7444 9.68183V13.5428C80.1807 13.5098 79.5838 13.5428 78.788 13.6088C74.3117 13.9718 72.3223 16.2488 71.7586 18.7568H71.858C72.9191 17.6678 74.4112 17.0408 76.4338 17.0408C80.048 17.0408 83.0986 19.5818 83.0986 24.0368C83.0986 28.2938 79.8159 31.7918 75.1407 31.7918C69.4044 31.7918 66.5859 27.5348 66.5859 22.4198C66.5859 18.3938 68.078 15.0278 70.3991 12.8828C72.5544 10.9358 75.3396 9.87983 78.7217 9.71483C79.6502 9.64883 80.247 9.64883 80.7444 9.68183ZM75.0744 28.0958C76.8649 28.0958 77.9923 26.4788 77.9923 24.3008C77.9923 22.3208 76.9312 20.6048 74.7759 20.6048C73.4165 20.6048 72.2891 21.4298 71.7917 22.5188C71.6591 22.7828 71.5928 23.1788 71.5928 23.7728C71.6923 26.0498 72.7865 28.0958 75.0744 28.0958Z" fill="white"/>
<path d="M58.4678 31.4285V14.4335H58.4015L54.2899 16.3805L53.4609 12.6185L59.1641 9.97852H63.342V31.4285H58.4678Z" fill="white"/>
<path d="M49.6237 26.8752L50.3864 30.8022C49.4579 31.2642 47.369 31.7592 44.65 31.7592C36.9243 31.7592 32.9453 26.9742 32.9453 20.6382C32.9453 13.0482 38.3832 8.82422 45.1474 8.82422C47.7669 8.82422 49.7564 9.35222 50.6516 9.81422L49.6237 13.8072C48.5958 13.3782 47.17 12.9822 45.3795 12.9822C41.3674 12.9822 38.2506 15.3912 38.2506 20.3412C38.2506 24.7962 40.9032 27.6012 45.4127 27.6012C46.9379 27.6012 48.629 27.2712 49.6237 26.8752Z" fill="white"/>
<path d="M16.5835 31.4295H11.9414V9.1875H17.8435L22.4856 17.3385C23.8119 19.6815 25.1382 22.4535 26.133 24.9615H26.2325C25.9009 22.0245 25.8014 19.0215 25.8014 15.6885V9.1875H30.4435V31.4295H25.1382L20.3635 22.8495C19.0372 20.4735 17.5782 17.6025 16.484 14.9955L16.3846 15.0285C16.5172 17.9655 16.5835 21.1005 16.5835 24.7305V31.4295Z" fill="white"/>
</g>
<defs>
<filter id="filter0_d_2450_1678" x="0" y="0" width="94" height="43" filterUnits="userSpaceOnUse" color-interpolation-filters="sRGB">
<feFlood flood-opacity="0" result="BackgroundImageFix"/>
<feColorMatrix in="SourceAlpha" type="matrix" values="0 0 0 0 0 0 0 0 0 0 0 0 0 0 0 0 0 0 127 0" result="hardAlpha"/>
<feOffset dy="1"/>
<feGaussianBlur stdDeviation="1"/>
<feColorMatrix type="matrix" values="0 0 0 0 0 0 0 0 0 0 0 0 0 0 0 0 0 0 0.5 0"/>
<feBlend mode="normal" in2="BackgroundImageFix" result="effect1_dropShadow_2450_1678"/>
<feBlend mode="normal" in="SourceGraphic" in2="effect1_dropShadow_2450_1678" result="shape"/>
</filter>
</defs>
</svg>
