<svg width="60" height="60" viewBox="0 0 60 60" fill="none" xmlns="http://www.w3.org/2000/svg">
<g filter="url(#filter0_d_2450_1676)">
<circle cx="30" cy="29" r="28" fill="#12AD2A"/>
<path d="M50.4889 40.3095V27.3016H41.2917V31.662H45.1025V36.8285C44.6628 37.0483 43.6368 37.1949 42.3544 37.1949C37.7741 37.1949 34.5863 34.1903 34.5863 29.097C34.5863 23.7473 38.1039 21.1091 42.7574 21.1091C45.4689 21.1091 47.1545 21.5854 48.5102 22.1717L49.6828 17.7014C48.4736 17.1151 46.0186 16.4922 42.8307 16.4922C34.7328 16.4922 28.7602 21.1824 28.7235 29.3902C28.6869 33.0177 29.9327 36.2422 32.2045 38.3674C34.4763 40.566 37.7375 41.7019 42.2444 41.7019C45.5056 41.7019 48.7667 40.8957 50.4889 40.3095Z" fill="white"/>
<path fill-rule="evenodd" clip-rule="evenodd" d="M9.60547 17.0785V41.4454H15.1384V32.6147C15.6514 32.688 16.311 32.7246 17.0438 32.7246C20.3416 32.7246 23.163 31.9185 25.0684 30.123C26.5341 28.7306 27.3402 26.6787 27.3402 24.2603C27.3402 21.8419 26.2776 19.79 24.702 18.5442C23.0531 17.225 20.5981 16.5655 17.1537 16.5655C13.746 16.5655 11.3276 16.7853 9.60547 17.0785ZM15.1384 28.2909V20.9992C15.5415 20.8892 16.311 20.7793 17.4469 20.7793C20.2316 20.7793 21.8072 22.1351 21.8072 24.4069C21.8072 26.9352 19.9751 28.4375 17.0071 28.4375C16.201 28.4375 15.6148 28.4008 15.1384 28.2909Z" fill="white"/>
</g>
<defs>
<filter id="filter0_d_2450_1676" x="0" y="0" width="60" height="60" filterUnits="userSpaceOnUse" color-interpolation-filters="sRGB">
<feFlood flood-opacity="0" result="BackgroundImageFix"/>
<feColorMatrix in="SourceAlpha" type="matrix" values="0 0 0 0 0 0 0 0 0 0 0 0 0 0 0 0 0 0 127 0" result="hardAlpha"/>
<feOffset dy="1"/>
<feGaussianBlur stdDeviation="1"/>
<feColorMatrix type="matrix" values="0 0 0 0 0 0 0 0 0 0 0 0 0 0 0 0 0 0 0.5 0"/>
<feBlend mode="normal" in2="BackgroundImageFix" result="effect1_dropShadow_2450_1676"/>
<feBlend mode="normal" in="SourceGraphic" in2="effect1_dropShadow_2450_1676" result="shape"/>
</filter>
</defs>
</svg>
