<svg width="60" height="60" viewBox="0 0 60 60" fill="none" xmlns="http://www.w3.org/2000/svg">
<g filter="url(#filter0_d_2450_1677)">
<circle cx="30" cy="29" r="28" fill="#12AD2A"/>
<path d="M43.0875 14.662V22.7613C42.0153 23.1263 39.9847 23.6282 37.9542 23.6282C35.148 23.6282 33.1175 22.921 31.703 21.5521C30.2884 20.2288 29.5127 18.2211 29.5355 15.9625C29.5584 10.8519 33.2772 7.93164 38.3193 7.93164C40.3041 7.93164 41.8327 8.31949 42.5856 8.68453L41.8555 11.4679C41.0114 11.1029 39.9619 10.8063 38.2736 10.8063C35.3761 10.8063 33.1859 12.449 33.1859 15.7799C33.1859 18.9512 35.1708 20.822 38.0227 20.822C38.8212 20.822 39.46 20.7308 39.7338 20.5939V17.377H37.361V14.662H43.0875Z" fill="white"/>
<path d="M30.0782 44.3686L28.8887 48.7429C30.3468 49.6637 33.0711 50.5079 36.2942 50.5079C42.6253 50.5079 46.5007 47.2848 46.5007 42.8722C46.5007 39.6107 44.0833 37.3469 41.0905 36.8097V36.7329C44.1601 35.6586 45.6565 33.5866 45.6565 30.939C45.6565 27.524 42.702 24.723 37.3685 24.723C34.1454 24.723 31.1525 25.6439 29.6561 26.6031L30.8456 30.8239C31.8816 30.21 34.0303 29.3274 36.0639 29.3274C38.5196 29.3274 39.7475 30.4402 39.7475 31.9366C39.7475 34.047 37.2534 34.776 35.2965 34.8144H33.0327V38.9968H35.4116C37.9825 38.9968 40.4382 40.1095 40.4382 42.5652C40.4382 44.4454 38.9033 45.9035 35.8721 45.9035C33.4931 45.9035 31.1142 44.9058 30.0782 44.3686Z" fill="white"/>
<path d="M19.6963 30.3251V50.0858H25.3367V25.1451H20.502L13.9023 28.2147L14.8616 32.5889L19.6195 30.3251H19.6963Z" fill="white"/>
<path fill-rule="evenodd" clip-rule="evenodd" d="M17.3318 8.29666V23.4685H20.7769V17.9701C21.0963 18.0158 21.5069 18.0386 21.9632 18.0386C24.0166 18.0386 25.7733 17.5367 26.9597 16.4187C27.8723 15.5518 28.3742 14.2741 28.3742 12.7684C28.3742 11.2626 27.7126 9.98496 26.7315 9.20926C25.7049 8.38792 24.1763 7.97726 22.0317 7.97726C19.9099 7.97726 18.4041 8.11414 17.3318 8.29666ZM20.7769 15.278V10.7378C21.0278 10.6694 21.5069 10.601 22.2142 10.601C23.9481 10.601 24.9292 11.4451 24.9292 12.8596C24.9292 14.4338 23.7884 15.3693 21.9404 15.3693C21.4385 15.3693 21.0735 15.3464 20.7769 15.278Z" fill="white"/>
</g>
<defs>
<filter id="filter0_d_2450_1677" x="0" y="0" width="60" height="60" filterUnits="userSpaceOnUse" color-interpolation-filters="sRGB">
<feFlood flood-opacity="0" result="BackgroundImageFix"/>
<feColorMatrix in="SourceAlpha" type="matrix" values="0 0 0 0 0 0 0 0 0 0 0 0 0 0 0 0 0 0 127 0" result="hardAlpha"/>
<feOffset dy="1"/>
<feGaussianBlur stdDeviation="1"/>
<feColorMatrix type="matrix" values="0 0 0 0 0 0 0 0 0 0 0 0 0 0 0 0 0 0 0.5 0"/>
<feBlend mode="normal" in2="BackgroundImageFix" result="effect1_dropShadow_2450_1677"/>
<feBlend mode="normal" in="SourceGraphic" in2="effect1_dropShadow_2450_1677" result="shape"/>
</filter>
</defs>
</svg>
