<svg width="94" height="43" viewBox="0 0 94 43" fill="none" xmlns="http://www.w3.org/2000/svg">
<g filter="url(#filter0_d_2450_1680)">
<path d="M2 7.42857C2 3.87817 4.89194 1 8.45933 1H85.5407C89.1081 1 92 3.87817 92 7.42857V33.5714C92 37.1218 89.1081 40 85.5407 40H8.45933C4.89194 40 2 37.1218 2 33.5714V7.42857Z" fill="#FF5A00"/>
<path d="M64.9287 31.8563V14.8612H64.8624L60.7508 16.8083L59.9219 13.0462L65.625 10.4062H69.8029V31.8563H64.9287Z" fill="white"/>
<path d="M57.7116 31.856H42.4258V28.82L45.211 26.312C49.9195 22.121 52.2074 19.712 52.2737 17.204C52.2737 15.455 51.2126 14.069 48.7258 14.069C46.8689 14.069 45.2442 14.993 44.1168 15.851L42.691 12.254C44.3158 11.033 46.8358 10.043 49.7537 10.043C54.6279 10.043 57.3137 12.881 57.3137 16.775C57.3137 20.372 54.6942 23.243 51.5774 26.015L49.5879 27.665V27.731H57.7116V31.856Z" fill="white"/>
<path d="M23.5664 31.8562V9.91122C25.1911 9.64722 27.6117 9.44922 30.2975 9.44922C33.6132 9.44922 35.9343 9.94422 37.5259 11.1982C38.8522 12.2542 39.5817 13.8052 39.5817 15.8512C39.5817 18.6892 37.559 20.6362 35.6359 21.3292V21.4282C37.1943 22.0552 38.0564 23.5402 38.6201 25.5862C39.3164 28.0942 40.0127 30.9982 40.4438 31.8562H35.2711C34.9064 31.2292 34.3759 29.4142 33.7127 26.6752C33.1159 23.9032 32.1543 23.1442 30.0985 23.1112H28.5732V31.8562H23.5664ZM28.5732 13.3432V19.4812H30.5627C33.0827 19.4812 34.5748 18.2272 34.5748 16.2802C34.5748 14.2342 33.1822 13.2112 30.8611 13.1782C29.6343 13.1782 28.938 13.2772 28.5732 13.3432Z" fill="white"/>
</g>
<defs>
<filter id="filter0_d_2450_1680" x="0" y="0" width="94" height="43" filterUnits="userSpaceOnUse" color-interpolation-filters="sRGB">
<feFlood flood-opacity="0" result="BackgroundImageFix"/>
<feColorMatrix in="SourceAlpha" type="matrix" values="0 0 0 0 0 0 0 0 0 0 0 0 0 0 0 0 0 0 127 0" result="hardAlpha"/>
<feOffset dy="1"/>
<feGaussianBlur stdDeviation="1"/>
<feColorMatrix type="matrix" values="0 0 0 0 0 0 0 0 0 0 0 0 0 0 0 0 0 0 0.5 0"/>
<feBlend mode="normal" in2="BackgroundImageFix" result="effect1_dropShadow_2450_1680"/>
<feBlend mode="normal" in="SourceGraphic" in2="effect1_dropShadow_2450_1680" result="shape"/>
</filter>
</defs>
</svg>
