<?xml version="1.0" encoding="UTF-8"?>
<svg width="69px" height="51px" viewBox="0 0 69 51" version="1.1" xmlns="http://www.w3.org/2000/svg" xmlns:xlink="http://www.w3.org/1999/xlink">
    <!-- Generator: sketchtool 47 (45396) - http://www.bohemiancoding.com/sketch -->
    <title>2F4B6BD3-A958-4FF5-8B37-A08B425515A6</title>
    <desc>Created with sketchtool.</desc>
    <defs></defs>
    <g id="Symbols" stroke="none" stroke-width="1" fill="none" fill-rule="evenodd" opacity="0.600000024">
        <g id="Button/FastForward_Default" fill="#FFFFFF">
            <g id="Icon/FastForward" transform="translate(14.000000, 3.000000)">
                <path d="M42.8296687,22.2601984 L42.8296687,22.2601984 C42.92531,22.3271473 43.0084893,22.4103266 43.0754383,22.505968 C43.3921528,22.9584173 43.282118,23.5819477 42.8296687,23.8986622 L42.8296687,23.8986622 L25.5734623,35.9780067 C25.4053788,36.0956651 25.2051721,36.1587747 25,36.1587747 C24.4477153,36.1587747 24,35.7110595 24,35.1587747 L24,35.1587747 L24,11.0000859 C24,10.7949138 24.0631096,10.5947071 24.1807681,10.4266235 C24.4974826,9.97417422 25.121013,9.86413943 25.5734623,10.1808539 L25.5734623,10.1808539 L42.8296687,22.2601984 Z M20.8296687,22.2601984 L20.8296687,22.2601984 C20.92531,22.3271473 21.0084893,22.4103266 21.0754383,22.505968 C21.3921528,22.9584173 21.282118,23.5819477 20.8296687,23.8986622 L20.8296687,23.8986622 L3.57346234,35.9780067 C3.40537881,36.0956651 3.2051721,36.1587747 3,36.1587747 C2.44771525,36.1587747 2,35.7110595 2,35.1587747 L2,35.1587747 L2,11.0000859 C2,10.7949138 2.0631096,10.5947071 2.18076808,10.4266235 C2.49748259,9.97417422 3.12101305,9.86413943 3.57346234,10.1808539 L3.57346234,10.1808539 L20.8296687,22.2601984 Z" id="Combined-Shape"></path>
            </g>
        </g>
    </g>
</svg>