<?xml version="1.0" encoding="UTF-8"?>
<svg width="69px" height="51px" viewBox="0 0 69 51" version="1.1" xmlns="http://www.w3.org/2000/svg" xmlns:xlink="http://www.w3.org/1999/xlink">
    <!-- Generator: sketchtool 47 (45396) - http://www.bohemiancoding.com/sketch -->
    <title>D51B5B7D-80BB-4971-B578-31D3AEA80B20</title>
    <desc>Created with sketchtool.</desc>
    <defs></defs>
    <g id="Symbols" stroke="none" stroke-width="1" fill="none" fill-rule="evenodd" opacity="0.600000024">
        <g id="Btn/SkipBack_Default" fill="#FFFFFF">
            <g id="Icon/SkipBack" transform="translate(-7.000000, 6.000000)">
                <path d="M8.83043478,7.63043478 L11.5173913,7.63043478 L11.5173913,7.63043478 C12.180133,7.63043478 12.7173913,8.16769308 12.7173913,8.83043478 L12.7173913,30.1695652 L12.7173913,30.1695652 C12.7173913,30.8323069 12.180133,31.3695652 11.5173913,31.3695652 L8.83043478,31.3695652 C8.16769308,31.3695652 7.63043478,30.8323069 7.63043478,30.1695652 L7.63043478,8.83043478 L7.63043478,8.83043478 C7.63043478,8.16769308 8.16769308,7.63043478 8.83043478,7.63043478 L8.83043478,7.63043478 Z M15.5833748,18.6807681 L29.7961029,8.73185842 L29.7961029,8.73185842 C30.2485522,8.41514392 30.8720826,8.5251787 31.1887971,8.977628 C31.3064556,9.14571154 31.3695652,9.34591824 31.3695652,9.55109034 L31.3695652,29.4489097 C31.3695652,30.0011944 30.92185,30.4489097 30.3695652,30.4489097 C30.1643931,30.4489097 29.9641864,30.3858001 29.7961029,30.2681416 L15.5833748,20.3192319 L15.5833748,20.3192319 C15.1309255,20.0025174 15.0208907,19.378987 15.3376052,18.9265377 C15.4045541,18.8308963 15.4877335,18.747717 15.5833748,18.6807681 L15.5833748,18.6807681 Z" id="Combined-Shape"></path>
            </g>
        </g>
    </g>
</svg>