<?xml version="1.0" encoding="UTF-8"?>
<svg width="69px" height="51px" viewBox="0 0 69 51" version="1.1" xmlns="http://www.w3.org/2000/svg" xmlns:xlink="http://www.w3.org/1999/xlink">
    <!-- Generator: sketchtool 47 (45396) - http://www.bohemiancoding.com/sketch -->
    <title>45864263-9F3A-4A01-874F-A8EAE4550C7C</title>
    <desc>Created with sketchtool.</desc>
    <defs></defs>
    <g id="Symbols" stroke="none" stroke-width="1" fill="none" fill-rule="evenodd">
        <g id="Button/Pause-Active" fill="#FFFFFF">
            <g id="Icon/Pause" transform="translate(1.000000, -8.000000)">
                <path d="M20.1347826,13.1086957 L26.1482679,13.1086957 C26.8110096,13.1086957 27.3482679,13.645954 27.3482679,14.3086957 L27.3482679,52.6913043 L27.3482679,52.6913043 C27.3482679,53.354046 26.8110096,53.8913043 26.1482679,53.8913043 L20.1347826,53.8913043 C19.4720409,53.8913043 18.9347826,53.354046 18.9347826,52.6913043 L18.9347826,14.3086957 L18.9347826,14.3086957 C18.9347826,13.645954 19.4720409,13.1086957 20.1347826,13.1086957 L20.1347826,13.1086957 Z M40.5675327,13.1086957 L46.581018,13.1086957 C47.2437597,13.1086957 47.781018,13.645954 47.781018,14.3086957 L47.781018,52.6913043 C47.781018,53.354046 47.2437597,53.8913043 46.581018,53.8913043 L40.5675327,53.8913043 C39.904791,53.8913043 39.3675327,53.354046 39.3675327,52.6913043 L39.3675327,14.3086957 L39.3675327,14.3086957 C39.3675327,13.645954 39.904791,13.1086957 40.5675327,13.1086957 L40.5675327,13.1086957 Z" id="Combined-Shape"></path>
            </g>
        </g>
    </g>
</svg>