<?xml version="1.0" encoding="UTF-8"?>
<svg width="69px" height="51px" viewBox="0 0 69 51" version="1.1" xmlns="http://www.w3.org/2000/svg" xmlns:xlink="http://www.w3.org/1999/xlink">
    <!-- Generator: sketchtool 47 (45396) - http://www.bohemiancoding.com/sketch -->
    <title>9702C896-6B67-49B9-B7D7-CE0205619B2C</title>
    <desc>Created with sketchtool.</desc>
    <defs></defs>
    <g id="Symbols" stroke="none" stroke-width="1" fill="none" fill-rule="evenodd" opacity="0.5">
        <g id="Btn/ClosedCaptions_Default" fill="#FFFFFF">
            <g id="Icon/ClosedCaptions" transform="translate(12.000000, 2.000000)">
                <path d="M0,9 L46,9 L46,38 L0,38 L0,9 Z M16.952,32.336 C18.2160063,32.336 19.3279952,32.2080013 20.288,31.952 C21.2480048,31.6959987 21.9919974,31.4080016 22.52,31.088 L21.488,28.088 C21.279999,28.1840005 21.0480013,28.2879994 20.792,28.4 C20.5359987,28.5120006 20.2400017,28.6119996 19.904,28.7 C19.5679983,28.7880004 19.1840022,28.8639997 18.752,28.928 C18.3199978,28.9920003 17.8320027,29.024 17.288,29.024 C16.4239957,29.024 15.688003,28.8840014 15.08,28.604 C14.471997,28.3239986 13.9800019,27.9440024 13.604,27.464 C13.2279981,26.9839976 12.9560008,26.4120033 12.788,25.748 C12.6199992,25.0839967 12.536,24.3680038 12.536,23.6 C12.536,22.6399952 12.6639987,21.8240034 12.92,21.152 C13.1760013,20.4799966 13.5159979,19.9320021 13.94,19.508 C14.3640021,19.0839979 14.8519972,18.776001 15.404,18.584 C15.9560028,18.391999 16.5199971,18.296 17.096,18.296 C17.9600043,18.296 18.7319966,18.391999 19.412,18.584 C20.0920034,18.776001 20.6879974,19.0079986 21.2,19.28 L22.28,16.256 C22.1519994,16.1759996 21.9440014,16.0640007 21.656,15.92 C21.3679986,15.7759993 21.0080022,15.6360007 20.576,15.5 C20.1439978,15.3639993 19.6400029,15.2440005 19.064,15.14 C18.4879971,15.0359995 17.8480035,14.984 17.144,14.984 C15.9279939,14.984 14.8000052,15.1759981 13.76,15.56 C12.7199948,15.9440019 11.8240038,16.5079963 11.072,17.252 C10.3199962,17.9960037 9.72800216,18.9079946 9.296,19.988 C8.86399784,21.0680054 8.648,22.2959931 8.648,23.672 C8.648,26.4400138 9.35599292,28.5759925 10.772,30.08 C12.1880071,31.5840075 14.2479865,32.336 16.952,32.336 Z M32.504,32.336 C33.7680063,32.336 34.8799952,32.2080013 35.84,31.952 C36.8000048,31.6959987 37.5439974,31.4080016 38.072,31.088 L37.04,28.088 C36.831999,28.1840005 36.6000013,28.2879994 36.344,28.4 C36.0879987,28.5120006 35.7920017,28.6119996 35.456,28.7 C35.1199983,28.7880004 34.7360022,28.8639997 34.304,28.928 C33.8719978,28.9920003 33.3840027,29.024 32.84,29.024 C31.9759957,29.024 31.240003,28.8840014 30.632,28.604 C30.023997,28.3239986 29.5320019,27.9440024 29.156,27.464 C28.7799981,26.9839976 28.5080008,26.4120033 28.34,25.748 C28.1719992,25.0839967 28.088,24.3680038 28.088,23.6 C28.088,22.6399952 28.2159987,21.8240034 28.472,21.152 C28.7280013,20.4799966 29.0679979,19.9320021 29.492,19.508 C29.9160021,19.0839979 30.4039972,18.776001 30.956,18.584 C31.5080028,18.391999 32.0719971,18.296 32.648,18.296 C33.5120043,18.296 34.2839966,18.391999 34.964,18.584 C35.6440034,18.776001 36.2399974,19.0079986 36.752,19.28 L37.832,16.256 C37.7039994,16.1759996 37.4960014,16.0640007 37.208,15.92 C36.9199986,15.7759993 36.5600022,15.6360007 36.128,15.5 C35.6959978,15.3639993 35.1920029,15.2440005 34.616,15.14 C34.0399971,15.0359995 33.4000035,14.984 32.696,14.984 C31.4799939,14.984 30.3520052,15.1759981 29.312,15.56 C28.2719948,15.9440019 27.3760038,16.5079963 26.624,17.252 C25.8719962,17.9960037 25.2800022,18.9079946 24.848,19.988 C24.4159978,21.0680054 24.2,22.2959931 24.2,23.672 C24.2,26.4400138 24.9079929,28.5759925 26.324,30.08 C27.7400071,31.5840075 29.7999865,32.336 32.504,32.336 Z" id="Combined-Shape"></path>
            </g>
        </g>
    </g>
</svg>