<?xml version="1.0" encoding="UTF-8"?>
<svg width="69px" height="51px" viewBox="0 0 69 51" version="1.1" xmlns="http://www.w3.org/2000/svg" xmlns:xlink="http://www.w3.org/1999/xlink">
    <!-- Generator: sketchtool 47 (45396) - http://www.bohemiancoding.com/sketch -->
    <title>1FA28564-30C7-4F47-A3DD-70205D81D77C</title>
    <desc>Created with sketchtool.</desc>
    <defs></defs>
    <g id="Symbols" stroke="none" stroke-width="1" fill="none" fill-rule="evenodd" opacity="0.600000024">
        <g id="Button/Rewind_Default" fill="#FFFFFF">
            <g id="Icon/Rewind" transform="translate(13.000000, 3.000000)">
                <path d="M2.42662352,22.2601984 L19.6828299,10.1808539 L19.6828299,10.1808539 C20.1352792,9.86413943 20.7588096,9.97417422 21.0755241,10.4266235 C21.1931826,10.5947071 21.2562922,10.7949138 21.2562922,11.0000859 L21.2562922,35.1587747 L21.2562922,35.1587747 C21.2562922,35.7110595 20.808577,36.1587747 20.2562922,36.1587747 C20.0511201,36.1587747 19.8509134,36.0956651 19.6828299,35.9780067 L2.42662352,23.8986622 L2.42662352,23.8986622 C1.97417422,23.5819477 1.86413943,22.9584173 2.18085394,22.505968 C2.24780287,22.4103266 2.3309822,22.3271473 2.42662352,22.2601984 L2.42662352,22.2601984 Z M24.4266235,22.2601984 L41.6828299,10.1808539 L41.6828299,10.1808539 C42.1352792,9.86413943 42.7588096,9.97417422 43.0755241,10.4266235 C43.1931826,10.5947071 43.2562922,10.7949138 43.2562922,11.0000859 L43.2562922,35.1587747 C43.2562922,35.7110595 42.808577,36.1587747 42.2562922,36.1587747 C42.0511201,36.1587747 41.8509134,36.0956651 41.6828299,35.9780067 L24.4266235,23.8986622 L24.4266235,23.8986622 C23.9741742,23.5819477 23.8641394,22.9584173 24.1808539,22.505968 C24.2478029,22.4103266 24.3309822,22.3271473 24.4266235,22.2601984 L24.4266235,22.2601984 Z" id="Combined-Shape"></path>
            </g>
        </g>
    </g>
</svg>