<?xml version="1.0" encoding="UTF-8"?>
<svg width="69px" height="51px" viewBox="0 0 69 51" version="1.1" xmlns="http://www.w3.org/2000/svg" xmlns:xlink="http://www.w3.org/1999/xlink">
    <!-- Generator: sketchtool 47 (45396) - http://www.bohemiancoding.com/sketch -->
    <title>29145B0E-3F17-4945-8823-C9DEEF360777</title>
    <desc>Created with sketchtool.</desc>
    <defs></defs>
    <g id="Symbols" stroke="none" stroke-width="1" fill="none" fill-rule="evenodd" opacity="0.600000024">
        <g id="Button/SkipForward_Default" fill="#FFFFFF">
            <g id="Icon/SkipForward" transform="translate(31.000000, 3.000000)">
                <path d="M35.8,9 L35.8,9 C36.4627417,9 37,9.5372583 37,10.2 L37,10.2 L37,35.8 C37,36.4627417 36.4627417,37 35.8,37 L35.8,37 L32.2,37 C31.5372583,37 31,36.4627417 31,35.8 L31,10.2 C31,9.5372583 31.5372583,9 32.2,9 L32.2,9 L35.8,9 Z M27.8296687,22.1807681 C27.92531,22.247717 28.0084893,22.3308963 28.0754383,22.4265377 C28.3921528,22.878987 28.282118,23.5025174 27.8296687,23.8192319 L10.5734623,35.8985764 C10.4053788,36.0162348 10.2051721,36.0793444 10,36.0793444 C9.44771525,36.0793444 9,35.6316292 9,35.0793444 L9,10.9206556 C9,10.7154835 9.0631096,10.5152768 9.18076808,10.3471932 C9.49748259,9.89474392 10.121013,9.78470913 10.5734623,10.1014236 L27.8296687,22.1807681 Z" id="Combined-Shape"></path>
            </g>
        </g>
    </g>
</svg>